<svg width="330" height="125" viewBox="0 0 330 125" fill="none" xmlns="http://www.w3.org/2000/svg">
<g filter="url(#filter0_dd_33329_6478)">
<path d="M20.178 76.7213L23.8253 35.6067C24.4113 29.0014 29.875 23.8958 36.5048 23.7583L296.085 18.3717C304.922 18.1884 311.362 26.6879 308.794 35.1459L289.967 97.1514C288.215 102.922 282.724 106.73 276.705 106.348L32.3041 90.844C25.0111 90.3813 19.5322 84.0003 20.178 76.7213Z" fill="url(#paint0_radial_33329_6478)"/>
<path d="M21.6721 76.8539L25.3194 35.7393C25.8378 29.8961 30.6711 25.3796 36.5359 25.2579L296.116 19.8714C303.934 19.7092 309.63 27.228 307.359 34.7101L288.532 96.7156C286.982 101.821 282.125 105.189 276.8 104.851L32.399 89.347C25.9476 88.9377 21.1009 83.293 21.6721 76.8539Z" stroke="url(#paint1_radial_33329_6478)" stroke-width="3"/>
</g>
<defs>
<filter id="filter0_dd_33329_6478" x="0.125977" y="0.369141" width="329.238" height="124.006" filterUnits="userSpaceOnUse" color-interpolation-filters="sRGB">
<feFlood flood-opacity="0" result="BackgroundImageFix"/>
<feColorMatrix in="SourceAlpha" type="matrix" values="0 0 0 0 0 0 0 0 0 0 0 0 0 0 0 0 0 0 127 0" result="hardAlpha"/>
<feOffset dx="4" dy="2"/>
<feGaussianBlur stdDeviation="8"/>
<feColorMatrix type="matrix" values="0 0 0 0 0.0522406 0 0 0 0 0.0399826 0 0 0 0 0.195833 0 0 0 1 0"/>
<feBlend mode="normal" in2="BackgroundImageFix" result="effect1_dropShadow_33329_6478"/>
<feColorMatrix in="SourceAlpha" type="matrix" values="0 0 0 0 0 0 0 0 0 0 0 0 0 0 0 0 0 0 127 0" result="hardAlpha"/>
<feOffset dx="-4" dy="-2"/>
<feGaussianBlur stdDeviation="8"/>
<feColorMatrix type="matrix" values="0 0 0 0 0.626878 0 0 0 0 0.549427 0 0 0 0 0.9625 0 0 0 1 0"/>
<feBlend mode="normal" in2="effect1_dropShadow_33329_6478" result="effect2_dropShadow_33329_6478"/>
<feBlend mode="normal" in="SourceGraphic" in2="effect2_dropShadow_33329_6478" result="shape"/>
</filter>
<radialGradient id="paint0_radial_33329_6478" cx="0" cy="0" r="1" gradientUnits="userSpaceOnUse" gradientTransform="translate(175.748 -96.3403) rotate(66.773) scale(366.549 1349.84)">
<stop stop-color="#0085FF"/>
<stop offset="1" stop-color="#25F4EE"/>
</radialGradient>
<radialGradient id="paint1_radial_33329_6478" cx="0" cy="0" r="1" gradientUnits="userSpaceOnUse" gradientTransform="translate(175.748 -96.3403) rotate(66.773) scale(366.549 1349.84)">
<stop stop-color="#6CD3FF"/>
<stop offset="1" stop-color="#1A91FF"/>
</radialGradient>
</defs>
</svg>
