<svg width="142" height="487" viewBox="0 0 142 487" fill="none" xmlns="http://www.w3.org/2000/svg">
<g clip-path="url(#clip0_33332_9665)">
<path fill-rule="evenodd" clip-rule="evenodd" d="M55.619 63.6677C54.3925 61.7658 53.3063 59.4256 52.2456 57.1404L52.2455 57.1403C51.0606 54.5873 49.9074 52.1029 48.626 50.3747C45.4011 46.0821 43.3947 41.0015 42.8178 35.6672C42.8052 34.4426 43.161 33.2425 43.8392 32.2219C44.5173 31.2013 45.4867 30.4072 46.6219 29.9423C46.5831 29.563 46.559 29.145 46.5473 28.6976C46.1971 27.1051 46.3155 26.468 46.582 26.2754C46.7965 21.5571 47.7379 15.6899 47.7379 15.6899C53.1501 3.06641 65.2824 1.80885 69.7225 1.79688H72.2426C76.6467 1.79688 88.8511 2.99455 94.2872 15.678C94.2872 15.678 95.2144 21.5006 95.4358 26.2095C95.8528 26.2609 96.1175 26.9313 95.4633 29.4513C95.4533 29.4976 95.4431 29.5439 95.4326 29.5901C95.424 29.7066 95.4143 29.8201 95.4033 29.9303C96.5459 30.4043 97.5188 31.2109 98.1952 32.2449C98.8717 33.279 99.2202 34.4924 99.1954 35.7271C98.6076 41.0587 96.6023 46.1365 93.3872 50.4346C92.0806 52.1734 90.8927 54.6856 89.6717 57.2679L89.6717 57.268C88.6234 59.4852 87.5506 61.754 86.3572 63.6293L88.1059 67.452C87.6711 64.639 87.7951 62.0161 87.7951 62.0161L88.8549 69.0894L90.915 73.5929C90.923 73.5985 90.9311 73.6041 90.9392 73.6097C93.1691 75.1407 104.335 81.3473 113.129 86.2358L113.13 86.2365L113.131 86.2371L113.131 86.2371L113.132 86.2374C118.44 89.1878 122.883 91.6577 123.976 92.3294C124.214 92.4755 124.491 92.6379 124.799 92.8185L124.8 92.8192L124.8 92.8193C128.252 94.8443 135.61 99.1605 135.808 108.594C136.012 118.273 136.822 130.864 137.106 135.277L137.152 135.997C137.381 139.566 138.041 166.082 137.152 178.107C137.152 178.107 137.368 187.916 138.941 193.042C140.513 198.168 140.729 223.128 138.941 233.596C137.682 241.402 137.308 249.324 137.825 257.214C137.864 257.879 137.966 258.877 138.092 260.119C138.649 265.586 139.684 275.758 138.041 282.844C136.537 289.329 136.161 296.799 135.973 300.546L135.973 300.547C135.909 301.824 135.866 302.668 135.808 302.893C135.58 303.78 134.476 306.007 132.688 306.007C130.9 306.007 127.768 305.349 127.552 301.336C127.366 297.875 127.501 290.098 127.542 288.029C127.505 287.87 127.475 287.7 127.449 287.531C126.854 287.616 123.865 287.917 123.088 285.515C122.861 284.814 122.505 283.897 122.104 282.863L122.103 282.861L122.103 282.861C120.975 279.956 119.488 276.125 119.488 273.538L119.465 273.385C119.097 285.678 118.267 299.401 116.404 308.247C113.944 319.388 112.455 330.72 111.952 342.117C111.952 343.738 111.586 346.345 111.203 349.067C110.738 352.379 110.249 355.861 110.368 357.939C110.584 361.723 111.94 398.66 107.968 417.212C103.996 435.764 103.66 443.716 103.66 445.537C103.66 447.357 103.66 452.447 104.776 455.346C105.96 458.158 106.422 461.221 106.12 464.256C105.811 466.114 107.441 467.126 108.987 468.085C109.664 468.506 110.325 468.916 110.8 469.383C111.089 469.667 111.494 470.052 111.968 470.502L111.972 470.506L111.972 470.506C114.052 472.482 117.445 475.708 118.168 477.179C119.056 478.988 120.4 483.168 117.28 485.204H98.5234C98.5234 485.204 93.8432 485.204 92.2712 482.976C90.6992 480.749 86.271 479.85 85.071 480.293C83.871 480.737 81.0509 478.066 81.2789 474.952C81.3733 473.663 81.8872 472.141 82.4095 470.596C83.1488 468.408 83.9047 466.171 83.5109 464.472C82.8389 461.574 83.2829 456.675 83.955 453.561C84.9477 448.87 85.098 444.04 84.399 439.297C83.5109 433.308 80.1629 408.552 80.1629 399.187C80.1629 389.821 81.0509 373.113 81.7229 365.101C82.3949 357.088 80.2228 342.536 79.1068 335.159L79.0684 334.905L79.0684 334.905L79.0683 334.904C77.9132 327.271 71.3653 284 71.3205 265.099L71.2633 265.051C70.3731 283.644 64.004 328.37 62.9664 335.207L62.9302 335.445C61.8032 342.87 59.6374 357.138 60.2903 365.065C60.9503 373.077 61.8503 389.785 61.8503 399.151C61.8503 408.516 58.5023 433.273 57.6022 439.261C56.9111 444.006 57.0695 448.836 58.0702 453.525C58.7303 456.639 59.1863 461.538 58.5143 464.436C58.1217 466.129 58.8757 468.358 59.6137 470.539C60.1392 472.092 60.6565 473.621 60.7463 474.916C60.9623 478.03 58.1423 480.701 56.9422 480.257C55.7422 479.814 51.3021 480.713 49.742 482.94C48.182 485.168 43.4898 485.168 43.4898 485.168H24.6613C21.5412 483.132 22.8853 478.952 23.7733 477.143C24.4961 475.672 27.89 472.446 29.9692 470.47L29.9696 470.47C30.4448 470.018 30.8513 469.632 31.1415 469.347C31.6172 468.879 32.2804 468.468 32.9598 468.048C34.5087 467.089 36.1422 466.077 35.8336 464.221C35.5121 461.186 35.9705 458.119 37.1657 455.31C38.2817 452.411 38.2817 447.285 38.2817 445.501C38.2817 443.716 38.0657 435.752 34.0456 417.2C30.0255 398.648 31.3575 361.711 31.5855 357.927C31.7111 355.842 31.2178 352.344 30.7493 349.022C30.3671 346.312 30.0015 343.719 30.0015 342.105C29.5201 330.711 28.0587 319.379 25.6333 308.235C23.739 299.27 22.9121 285.298 22.5533 272.88L22.5373 272.987C22.5373 275.707 20.9487 279.977 19.8102 283.037L19.81 283.038C19.4544 283.994 19.1428 284.831 18.9371 285.467C18.0731 288.138 14.473 287.467 14.473 287.467C14.473 287.467 14.701 297.276 14.473 301.288C14.245 305.301 11.1249 305.959 9.33688 305.959C7.54883 305.959 6.4208 303.732 6.20479 302.845C6.1511 302.625 6.11001 301.813 6.0478 300.583C5.85973 296.865 5.47863 289.33 3.97273 282.796C2.33009 275.669 3.38024 265.42 3.93801 259.977C4.06073 258.779 4.15961 257.814 4.20073 257.166C4.70597 249.276 4.33167 241.355 3.0847 233.548C1.29665 223.128 1.45266 198.168 3.0127 193.042C4.57274 187.916 4.80075 178.107 4.80075 178.107C3.90073 166.082 4.51274 139.566 4.80075 135.997C5.08876 132.428 5.94078 118.87 6.16879 108.594C6.37923 99.1095 13.776 94.7978 17.2261 92.7866L17.2266 92.7863L17.2277 92.7857L17.2304 92.7841L17.2326 92.7828C17.518 92.6164 17.7763 92.4658 18.0011 92.3294C19.0639 91.6843 23.2159 89.3803 28.2531 86.585L28.2542 86.5844L28.2559 86.5835C37.1532 81.6462 48.8106 75.1772 51.0861 73.6097C51.094 73.6042 51.1019 73.5987 51.1098 73.5932L53.1733 69.051L54.2301 62.0161C54.2301 62.0161 54.3493 64.6085 53.9221 67.4028L55.619 63.6677Z" fill="white" fill-opacity="0.7"/>
<path d="M87.7957 62.0166C87.7957 62.0166 87.3636 71.1549 90.9397 73.6101C94.5158 76.0654 121.073 90.5453 123.977 92.3298C126.881 94.1144 135.593 98.3182 135.809 108.594C136.025 118.87 136.925 132.428 137.153 135.997C137.381 139.566 138.041 166.083 137.153 178.108C137.153 178.108 137.369 187.917 138.941 193.043C140.513 198.169 140.729 223.128 138.941 233.596C137.683 241.402 137.308 249.325 137.825 257.214C138.041 260.807 140.057 274.149 138.041 282.845C136.025 291.54 136.037 302.007 135.809 302.894C135.581 303.78 134.477 306.008 132.689 306.008C130.901 306.008 127.769 305.349 127.553 301.337C127.337 297.324 127.553 287.515 127.553 287.515C127.553 287.515 123.953 288.186 123.089 285.515C122.225 282.845 119.489 277.048 119.489 273.539" stroke="#161938" stroke-width="3" stroke-linecap="round" stroke-linejoin="round"/>
<path d="M115.048 126.2C115.048 126.2 113.044 129.542 113.044 135.782V172.323C113.044 172.323 113.38 186.36 114.004 192.827C114.628 199.295 114.172 212.217 115.06 216.673C115.948 221.128 119.752 239.62 119.752 248.088C119.752 256.556 119.968 291.324 116.404 308.247C113.944 319.388 112.455 330.721 111.952 342.118C111.952 345.711 110.152 354.154 110.368 357.939C110.584 361.724 111.94 398.66 107.968 417.212C103.996 435.764 103.66 443.717 103.66 445.537C103.66 447.358 103.66 452.448 104.776 455.346C105.96 458.158 106.422 461.221 106.12 464.257C105.676 466.928 109.24 467.85 110.8 469.383C112.36 470.916 117.28 475.371 118.168 477.18C119.056 478.988 120.4 483.168 117.28 485.204H98.5234C98.5234 485.204 93.8432 485.204 92.2712 482.977C90.6991 480.749 86.271 479.851 85.071 480.294C83.871 480.737 81.0509 478.066 81.2789 474.952C81.5069 471.838 84.183 467.371 83.5109 464.472C82.8389 461.574 83.2829 456.676 83.955 453.562C84.9477 448.871 85.098 444.041 84.399 439.297C83.5109 433.309 80.1629 408.553 80.1629 399.187C80.1629 389.821 81.0509 373.114 81.7229 365.101C82.3949 357.089 80.2229 342.537 79.1068 335.159C77.9908 327.781 70.3346 277.443 71.4266 261.262" stroke="#161938" stroke-width="3" stroke-linecap="round" stroke-linejoin="round"/>
<path d="M69.1714 69.3699C65.6109 69.539 62.0683 68.7708 58.8991 67.1422C54.447 64.5672 51.9749 54.89 48.6268 50.3747C45.402 46.0821 43.3956 41.0015 42.8187 35.6672C42.8061 34.4426 43.1619 33.2425 43.84 32.2219C44.5182 31.2013 45.4876 30.4072 46.6228 29.9423C46.1668 25.487 47.7388 15.6899 47.7388 15.6899C53.151 3.06641 65.2833 1.80885 69.7234 1.79688H72.2435C76.6476 1.79688 88.852 2.99455 94.2881 15.678C94.2881 15.678 95.8482 25.475 95.4042 29.9303C96.5467 30.4043 97.5197 31.2109 98.1961 32.2449C98.8726 33.279 99.2211 34.4924 99.1963 35.7271C98.6085 41.0587 96.6032 46.1365 93.3881 50.4346C90.04 54.89 87.4719 64.4235 83.1278 67.2021C78.7837 69.9807 72.8555 69.4657 72.8555 69.4657H69.1714" stroke="#161938" stroke-width="3" stroke-linecap="round" stroke-linejoin="round"/>
<path d="M54.2301 62.0166C54.2301 62.0166 54.6502 71.1549 51.0861 73.6101C47.522 76.0654 20.9412 90.5453 18.0011 92.3298C15.061 94.1144 6.3968 98.3182 6.16879 108.594C5.94078 118.87 5.08876 132.428 4.80075 135.997C4.51274 139.566 3.90073 166.083 4.80075 178.108C4.80075 178.108 4.57274 187.917 3.0127 193.043C1.45266 198.169 1.29665 223.128 3.0847 233.548C4.33167 241.355 4.70597 249.277 4.20073 257.166C3.97273 260.759 1.96867 274.102 3.97273 282.797C5.97678 291.492 5.98878 301.96 6.20479 302.846C6.4208 303.732 7.54883 305.96 9.33688 305.96C11.1249 305.96 14.245 305.301 14.473 301.289C14.701 297.277 14.473 287.468 14.473 287.468C14.473 287.468 18.0731 288.138 18.9371 285.468C19.8012 282.797 22.5373 276.557 22.5373 272.988" stroke="#161938" stroke-width="3" stroke-linecap="round" stroke-linejoin="round"/>
<path d="M26.9663 126.2C26.9663 126.2 28.9823 129.542 28.9823 135.782V172.323C28.9823 172.323 28.6343 186.36 28.0223 192.815C27.4103 199.271 27.8663 212.205 26.9663 216.661C26.0662 221.116 22.2861 239.608 22.2861 248.076C22.2861 256.544 22.0581 291.312 25.6342 308.235C28.0596 319.38 29.521 330.712 30.0023 342.106C30.0023 345.699 31.8144 354.142 31.5864 357.927C31.3584 361.712 30.0263 398.648 34.0465 417.2C38.0666 435.752 38.2826 443.717 38.2826 445.501C38.2826 447.286 38.2826 452.412 37.1665 455.31C35.9714 458.119 35.513 461.186 35.8345 464.221C36.2785 466.892 32.7024 467.814 31.1424 469.347C29.5823 470.88 24.6622 475.335 23.7742 477.144C22.8861 478.952 21.5421 483.132 24.6622 485.168H43.4907C43.4907 485.168 48.1828 485.168 49.7429 482.941C51.3029 480.713 55.7431 479.815 56.9431 480.258C58.1431 480.701 60.9632 478.03 60.7472 474.916C60.5312 471.802 57.8431 467.335 58.5151 464.437C59.1872 461.538 58.7311 456.64 58.0711 453.526C57.0704 448.836 56.912 444.006 57.6031 439.261C58.5031 433.273 61.8512 408.517 61.8512 399.151C61.8512 389.785 60.9512 373.078 60.2912 365.065C59.6312 357.053 61.8512 342.561 62.9673 335.207C64.0833 327.853 71.3675 276.665 71.3675 261.31" stroke="#161938" stroke-width="3" stroke-linecap="round" stroke-linejoin="round"/>
<path d="M94.4917 26.6844C93.9613 30.086 92.9004 33.3836 91.3477 36.4575C93.4358 34.622 94.8786 32.1661 95.4638 29.4511C96.7478 24.5047 94.4917 26.6844 94.4917 26.6844Z" fill="#161938" stroke="#161938" stroke-linejoin="round"/>
<path d="M47.7021 26.6844C48.2221 30.0884 49.2835 33.3876 50.8462 36.4575C48.7493 34.6292 47.3047 32.1702 46.7301 29.4511C45.4341 24.5047 47.7021 26.6844 47.7021 26.6844Z" fill="#161938" stroke="#161938" stroke-linejoin="round"/>
<path d="M127.324 286.245C127.78 285.599 129.892 280.089 129.724 277.442C130.35 280.557 130.155 283.779 129.16 286.796C127.552 291.755 127.324 286.245 127.324 286.245Z" fill="#161938" stroke="#161938" stroke-linecap="round" stroke-linejoin="round"/>
<path d="M14.4971 286.245C14.0531 285.599 11.941 280.089 12.037 277.442C11.4 280.556 11.5945 283.782 12.601 286.796C14.2691 291.755 14.4971 286.245 14.4971 286.245Z" fill="#161938" stroke="#161938" stroke-linecap="round" stroke-linejoin="round"/>
</g>
<defs>
<clipPath id="clip0_33332_9665">
<rect width="142" height="487" fill="white"/>
</clipPath>
</defs>
</svg>
